<?xml version="1.0" encoding="UTF-8"?>
<svg id="Layer_1" xmlns="http://www.w3.org/2000/svg" version="1.1" viewBox="0 0 1000 313.7">
  <!-- Generator: Adobe Illustrator 29.2.1, SVG Export Plug-In . SVG Version: 2.1.0 Build 116)  -->
  <defs>
    <style>
      .st0 {
        fill: #ff385c;
      }
    </style>
  </defs>
  <path class="st0" d="M296.9,219.9c-1.3-3.8-2.9-7.4-4.4-10.8-2.3-5.2-4.7-10.4-7.1-15.5l-.2-.4c-20.8-45.1-43.2-90.9-66.5-136l-1-1.9c-2.4-4.6-4.8-9.4-7.4-14.1-3-5.9-6.6-11.5-10.8-16.6-4.7-5.6-10.6-10.2-17.3-13.3-6.7-3.1-14-4.7-21.3-4.7-7.4,0-14.6,1.6-21.3,4.7-6.7,3.1-12.6,7.7-17.3,13.3-4.2,5.1-7.8,10.7-10.8,16.6-2.5,4.7-5,9.5-7.4,14.2l-.9,1.8c-23.3,45.1-45.7,90.9-66.5,136l-.3.7c-2.3,5-4.7,10.1-6.9,15.2-1.5,3.4-3.1,7-4.4,10.8-3.9,10.3-5.1,21.5-3.6,32.4,1.6,11,6.1,21.5,13,30.3,6.9,8.8,16,15.6,26.3,19.9,7.8,3.2,16.2,4.8,24.6,4.8,2.7,0,5.3-.2,7.9-.5,10.7-1.4,21-4.8,30.3-10.2,12.2-6.9,24.3-16.9,37.4-31.3,13.2,14.4,25.2,24.4,37.4,31.3,9.3,5.4,19.6,8.9,30.3,10.2,2.6.3,5.3.5,7.9.5,8.4,0,16.8-1.6,24.6-4.8,10.4-4.2,19.4-11.1,26.3-19.9,6.9-8.8,11.4-19.2,13-30.3,1.5-10.9.3-22.1-3.6-32.4ZM161,235.6c-16.3-20.7-26.8-39.9-30.4-56-1.5-6-1.9-12.3-1-18.5.6-4.5,2.3-8.8,4.9-12.6,3.1-4.1,7.2-7.4,11.8-9.6,4.6-2.3,9.7-3.4,14.8-3.4,5.1,0,10.2,1.2,14.8,3.5,4.6,2.3,8.7,5.6,11.8,9.6,2.6,3.8,4.2,8.1,4.9,12.6.8,6.2.5,12.4-1.1,18.5-3.7,16.1-14.1,35.3-30.4,56ZM281.5,249.6c-1.1,7.7-4.2,15-9.1,21.2-4.8,6.1-11.2,10.9-18.4,13.9-7.3,2.9-15.3,4-23.1,3-8.1-1-16-3.7-23.1-7.9-10.9-6.1-21.9-15.5-34.3-29.2,19.7-24.3,32-46.7,36.6-66.7,2.1-8.4,2.5-17.1,1.3-25.6-1.1-7.4-3.8-14.4-8-20.6-4.9-6.6-11.3-12.1-18.7-15.8-7.4-3.7-15.5-5.7-23.8-5.7s-16.4,1.9-23.8,5.7c-7.4,3.7-13.8,9.1-18.7,15.8-4.2,6.2-6.9,13.2-8,20.6-1.2,8.6-.7,17.2,1.3,25.6,4.6,20,16.9,42.4,36.6,66.7-12.4,13.8-23.4,23.1-34.3,29.2-7.1,4.1-14.9,6.8-23.1,7.9-7.8,1-15.8,0-23.1-3-7.2-2.9-13.6-7.7-18.4-13.9-4.8-6.1-7.9-13.4-9.1-21.2-1.1-7.9-.2-15.8,2.7-23.2,1.1-3,2.3-6,3.9-9.5,2.2-5,4.5-10.1,6.8-15l.3-.7c20.7-44.9,43-90.4,66.1-135.3l.9-1.8c2.4-4.6,4.8-9.3,7.3-13.9,2.4-4.7,5.2-9.2,8.5-13.3,2.9-3.5,6.6-6.4,10.7-8.3,4.1-1.9,8.7-3,13.3-3,4.6,0,9.1,1,13.3,3,4.1,1.9,7.8,4.8,10.7,8.3,3.3,4.1,6.1,8.6,8.5,13.3,2.4,4.5,4.9,9.2,7.2,13.7l1,1.9c23.2,44.9,45.4,90.4,66.1,135.3l.2.4c2.3,5,4.7,10.1,6.9,15.2,1.6,3.5,2.8,6.5,3.9,9.5,2.8,7.4,3.7,15.4,2.7,23.3Z"/>
  <g>
    <path class="st0" d="M449.1,131.4c-3.9-5.7-8.7-10.2-14.7-13.2-6-3.3-12.6-4.8-20.1-4.8s-14.7,1.5-21.3,4.5c-6.6,3-12.3,7.5-17.1,12.9-4.8,5.7-8.7,12-11.4,19.3-2.7,7.2-4.2,15.4-4.2,23.8s1.2,16.3,3.9,23.5c2.7,6.9,6.3,13.2,11.1,18.7,4.8,5.4,10.2,9.6,16.5,12.6,6.3,3,13.2,4.5,20.7,4.5s15-1.8,21-5.1c6.6-3.6,11.7-8.4,15.6-14.4l.9,16.6h27.6v-113.5h-27.6l-.9,14.7ZM444.6,190.1c-2.7,4.8-6,8.7-10.2,11.7-4.5,2.7-9.3,4.2-14.7,4.2s-10.2-1.5-14.7-4.2c-4.2-3-7.8-6.9-10.2-11.7-2.4-4.8-3.6-10.5-3.6-16.9s1.2-12,3.6-16.9c2.7-4.8,6-8.7,10.2-11.7,4.5-2.7,9.3-4.2,14.7-4.2s10.5,1.2,14.7,4.2c4.2,3,7.8,6.9,10.2,11.7,2.4,4.8,3.6,10.5,3.6,16.9s-1.2,12-3.6,16.9Z"/>
    <path class="st0" d="M516.4,71.2c-2.7-1.5-5.7-2.1-8.7-2.1s-6,.6-8.7,2.1c-2.7,1.5-4.8,3.3-6.3,6-1.5,2.4-2.1,5.4-2.1,8.7s.6,6,2.1,8.7c1.5,2.4,3.6,4.5,6.3,6,2.7,1.5,5.7,2.1,8.7,2.1s6-.6,8.7-2.1c2.7-1.5,4.8-3.6,6.3-6,1.5-2.4,2.1-5.4,2.1-8.7s-.9-6.3-2.1-8.7c-1.5-2.4-3.6-4.5-6.3-6Z"/>
    <rect class="st0" x="492.7" y="116.4" width="30" height="113.5"/>
    <path class="st0" d="M717.3,130.2c-4.8-5.4-10.2-9.6-16.5-12.6-6.3-3-13.2-4.5-20.7-4.5s-14.1,1.8-20.1,4.8c-6,3.3-10.8,7.5-15,12.9v-61.1h-30v160.1l27.6-.3.9-14.7c3.9,5.7,8.7,10.2,14.7,13.2,6,3.3,12.6,4.8,20.1,4.8s14.7-1.5,21.3-4.5c6.6-3,12.3-7.5,17.1-12.9,4.8-5.7,8.7-12,11.4-19.3,2.7-7.2,4.2-15.3,4.2-23.8s-1.2-16.3-3.9-23.5c-2.7-6.9-6.3-13.2-11.1-18.7ZM697.8,190.1c-2.7,4.8-6,8.7-10.2,11.7-4.5,2.7-9.3,4.2-14.7,4.2s-10.2-1.5-14.7-4.2c-4.2-3-7.8-6.9-10.2-11.7-2.4-4.8-3.6-10.5-3.6-16.9s1.2-12,3.6-16.9c2.7-4.8,6-8.7,10.2-11.7,4.5-2.7,9.3-4.2,14.7-4.2s10.5,1.2,14.7,4.2c4.2,3,7.5,6.9,10.2,11.7,2.4,4.8,3.6,10.5,3.6,16.9s-1.2,12-3.6,16.9Z"/>
    <path class="st0" d="M975.3,148.9c-2.7-6.9-6.3-13.2-11.1-18.7-4.8-5.4-10.2-9.6-16.5-12.6-6.3-3-13.2-4.5-20.7-4.5s-14.1,1.8-20.1,4.8c-6,3.3-10.8,7.5-15,12.9v-61.1h-30v160.1l27.6-.3.9-14.7c3.9,5.7,8.7,10.2,14.7,13.2,6,3.3,12.6,4.8,20.1,4.8s14.7-1.5,21.3-4.5c6.6-3,12.3-7.5,17.1-12.9,4.8-5.7,8.7-12,11.4-19.3,2.7-7.2,4.2-15.3,4.2-23.8s-1.2-16.3-3.9-23.5ZM945,190.1c-2.7,4.8-6,8.7-10.2,11.7-4.5,2.7-9.3,4.2-14.7,4.2s-10.2-1.5-14.7-4.2c-4.2-3-7.8-6.9-10.2-11.7-2.4-4.8-3.6-10.5-3.6-16.9s.9-12,3.6-16.9c2.7-4.8,6-8.7,10.2-11.7,4.5-2.7,9.3-4.2,14.7-4.2s10.5,1.2,14.7,4.2c4.2,3,7.8,6.9,10.2,11.7,2.4,4.8,3.6,10.5,3.6,16.9s-1.2,12-3.6,16.9Z"/>
    <path class="st0" d="M594.8,114.9c-6.6,0-12.3,1.5-17.1,4.8-5.1,3.3-8.7,7.8-11.7,13.8l-.9-17.2h-27.6v113.5h30v-55.7c0-9.3,2.1-16.6,6.6-21.7,4.2-5.1,10.5-7.5,18.9-7.5s3.3,0,5.1.3c1.5.3,3.3.6,4.8,1.2v-30.4c-.6-.3-1.2-.3-2.1-.6-1.8-.3-3.9-.6-6-.6Z"/>
    <path class="st0" d="M840.7,130.5c-4.8-5.4-10.2-9.6-16.5-12.6-6.3-3-13.2-4.5-20.7-4.5s-14.1,1.8-20.1,4.8c-6,3.3-10.8,7.5-15,12.9v-61.1h-30v160.1l27.6-.3.9-14.8c3.9,5.7,8.7,10.2,14.7,13.2,6,3.3,12.6,4.8,20.1,4.8s14.7-1.5,21.3-4.5,12.3-7.5,17.1-12.9c4.8-5.7,8.7-12,11.4-19.3,2.7-7.2,4.2-15.3,4.2-23.8s-1.2-16.3-3.9-23.5c-2.7-6.9-6.3-13.2-11.1-18.7ZM821.2,190.4c-2.7,4.8-6,8.7-10.2,11.7-4.5,2.7-9.3,4.2-14.7,4.2s-10.2-1.5-14.7-4.2c-4.2-3-7.8-6.9-10.2-11.7-2.4-4.8-3.6-10.5-3.6-16.9s1.2-12,3.6-16.9c2.7-4.8,6-8.7,10.2-11.7,4.5-2.7,9.3-4.2,14.7-4.2s10.5,1.2,14.7,4.2c4.2,3,7.5,6.9,10.2,11.7,2.4,4.8,3.6,10.5,3.6,16.9s-1.2,12-3.6,16.9Z"/>
  </g>
</svg>