<svg viewBox="0 0 32 32" xmlns="http://www.w3.org/2000/svg" aria-hidden="true" role="presentation" focusable="false" style="display: block; fill: none; height: 32px; width: 32px; stroke: currentcolor; stroke-width: 1.5; overflow: visible;"><g stroke-width="1.5"><path d="m16 7.75c1.1735972 0 2.2360984.47570107 3.0051998 1.2448025.7690986.76909855 1.2448002 1.8315962 1.2448002 3.0051975 0 1.173595-.4757042 2.236094-1.2448051 3.0051949s-1.8315999 1.2448051-3.0051949 1.2448051-2.236094-.4757042-3.0051949-1.2448051-1.2448051-1.8315999-1.2448051-3.0051949c0-1.1736013.4757016-2.23609895 1.2448002-3.0051975.7691014-.76910143 1.8316026-1.2448025 3.0051998-1.2448025z"/><path d="m16 .75c3.1065961 0 5.9190979 1.2592006 7.9549498 3.2950525 2.0358488 2.03584879 3.2950502 4.84834676 3.2950502 7.9549475 0 6.0484567-3.6326743 12.1363419-10.665218 18.3219506l-.584789.5068533-.5806596-.5032601c-7.03664913-6.1892017-10.6693334-12.277087-10.6693334-18.3255438 0-3.08608466 1.26862562-5.90040631 3.31064245-7.94242314 2.03802515-2.03802519 4.84740855-3.30757686 7.93935755-3.30757686z"/></g></svg>